<svg id="Layer_1" data-name="Layer 1" xmlns="http://www.w3.org/2000/svg" viewBox="0 0 425.2 425.2"><defs><style>.cls-1{fill:#fff;}.cls-2{fill:#005c9c;}.cls-3{fill:#c9d410;}</style></defs><path class="cls-1" d="M417.65,204.18a78.89,78.89,0,0,0-2.37-12.41c-15.65-57.66-151.72-181-202.35-177.23C161.63,11.82,26.1,133,10.09,190.22a78,78,0,0,0-2.47,12.39A87.35,87.35,0,0,0,7.55,221a78.77,78.77,0,0,0,2.37,12.4c15.64,57.67,151.72,181.05,202.35,177.24C263.57,413.37,399.1,292.17,415.11,235a78.67,78.67,0,0,0,2.46-12.39A86.85,86.85,0,0,0,417.65,204.18Z"/><path class="cls-2" d="M231.42,197.45h-27a1.76,1.76,0,0,0-1.75,1.76v43.12a1.76,1.76,0,0,0,1.75,1.75h7.69a1.8,1.8,0,0,0,1.75-1.75V227h14.34a1.8,1.8,0,0,0,1.75-1.76v-7.1a1.8,1.8,0,0,0-1.75-1.75H213.89v-8.35h17.53a1.75,1.75,0,0,0,1.75-1.75v-7.1A1.75,1.75,0,0,0,231.42,197.45Z"/><path class="cls-2" d="M258.72,196.8a24,24,0,0,0-23.91,24,23.94,23.94,0,0,0,47.87,0A24,24,0,0,0,258.72,196.8Zm0,11.46a12.51,12.51,0,1,1-12.45,12.57A12.56,12.56,0,0,1,258.72,208.26Z"/><path class="cls-2" d="M304.53,215.79l-.77-.37c-4.2-2-6.81-3.69-6.81-5.6,0-1.48.91-3.06,3.46-3.06,3.11,0,6.66,2.14,8.53,3.44a2.52,2.52,0,0,0,3.56-.61l3.34-5.05a2.13,2.13,0,0,0-.53-2.75,24.79,24.79,0,0,0-14.25-5c-7.73,0-15.56,4.63-15.56,13.48,0,7.94,6.11,11.56,12.93,14.86,4.06,2,6.41,3.6,6.41,6.11,0,2-1.63,3.4-4,3.4-3.83,0-6.94-2.12-8.8-3.39l-.16-.1a2.19,2.19,0,0,0-1.68-.36,2,2,0,0,0-1.28.92L286,237a2,2,0,0,0,.35,2.57c1.21,1.21,5.88,5.16,15,5.16,9.95,0,15.89-7.12,15.89-14C317.21,221.94,310.18,218.53,304.53,215.79Z"/><path class="cls-2" d="M102.22,268.09V258c0-5.54,4.73-8.93,10.59-8.93s10.55,3.39,10.55,8.93v10.13c0,5.54-4.74,9-10.55,9S102.22,273.63,102.22,268.09Zm6.74-9.67v9.21c0,2.69,1.69,4.12,3.85,4.12a3.76,3.76,0,0,0,3.85-4.12v-9.21a3.76,3.76,0,0,0-3.85-4.12C110.65,254.3,109,255.73,109,258.42Z"/><path class="cls-2" d="M128.59,282.3a1.46,1.46,0,0,1-1.46-1.47V256.42a1.46,1.46,0,0,1,1.46-1.46h2.66a1.77,1.77,0,0,1,1.73,1.42l.08.46a7.19,7.19,0,0,1,5.12-2.27c5.2,0,6.85,2.66,6.85,7.82v6.7c0,5.16-1.65,7.82-6.85,7.82a7.06,7.06,0,0,1-4.66-1.85v5.77a1.47,1.47,0,0,1-1.46,1.47Zm4.93-21.07v9a4.51,4.51,0,0,0,3,1.51c1.58,0,2.12-.81,2.12-3v-6c0-2.2-.54-3-2.12-3A4.54,4.54,0,0,0,133.52,261.23Z"/><path class="cls-2" d="M157.74,276.91c-5.62,0-9.09-3.12-9.09-8.24v-5.82c0-5.12,3.47-8.28,9.09-8.28s9,3.16,9,8.28v2.54a1.47,1.47,0,0,1-1.47,1.47H155v1.81c0,2.42,1,3.35,2.7,3.35s2.58-1.12,2.58-1.93a1.1,1.1,0,0,1,1.27-1.27h3.77a1.28,1.28,0,0,1,1.31,1.39C166.67,273,163.71,276.91,157.74,276.91ZM155,263v.23l5.47-.16v-.19c0-2.19-.88-3.39-2.69-3.39S155,260.58,155,263Z"/><path class="cls-2" d="M171.87,276.52a1.46,1.46,0,0,1-1.47-1.46V256.42a1.46,1.46,0,0,1,1.47-1.46h2.69a1.7,1.7,0,0,1,1.7,1.46l.07.42a6.75,6.75,0,0,1,5-2.27c5.16,0,6.7,2.81,6.7,7.32v13.17a1.46,1.46,0,0,1-1.46,1.46h-3.47a1.46,1.46,0,0,1-1.46-1.46V262.35c0-1.81-.5-2.62-2-2.62a4.07,4.07,0,0,0-2.78,1.5v13.83a1.46,1.46,0,0,1-1.46,1.46Z"/><path class="cls-2" d="M199.63,267.13h3.81a1.27,1.27,0,0,1,1.35,1.34c0,1.27,1.46,3.24,4.12,3.24,2.34,0,3.69-1.27,3.69-3.16s-1.85-2.43-4-2.66c-4.93-.5-9.82-2.42-9.82-8v-.77c0-4.62,3-8,9.82-8s10.05,4,10.05,8.31a1.4,1.4,0,0,1-1.39,1.46h-3.77a1.27,1.27,0,0,1-1.35-1.34,3.24,3.24,0,0,0-3.54-3.16c-2.16,0-3.31,1.23-3.31,2.89,0,2.31,2,2.73,4.23,3,4.58.47,9.63,2.27,9.63,7.7v.93c0,4.89-3.43,8.16-10.2,8.16s-10.67-3.81-10.67-8.43A1.4,1.4,0,0,1,199.63,267.13Z"/><path class="cls-2" d="M231.58,276.87c-5.62,0-9.08-3.12-9.08-8.24v-5.78c0-5.12,3.46-8.24,9.08-8.24s9,3,9,7.55a1.42,1.42,0,0,1-1.42,1.46h-3.58a1.31,1.31,0,0,1-1.35-1.46,2.34,2.34,0,0,0-2.62-2.58c-1.73,0-2.69,1.27-2.69,3.69v4.93c0,2.43,1,3.7,2.69,3.7a2.36,2.36,0,0,0,2.62-2.62,1.31,1.31,0,0,1,1.35-1.46h3.58a1.42,1.42,0,0,1,1.42,1.46C240.55,273.75,237.28,276.87,231.58,276.87Z"/><path class="cls-2" d="M243.94,268.67v-5.86c0-5.12,3.47-8.24,9.09-8.24s9,3.12,9,8.24v5.86c0,5.12-3.47,8.24-9,8.24S243.94,273.79,243.94,268.67Zm6.39-5.43v5c0,2.43,1,3.7,2.7,3.7s2.66-1.27,2.66-3.7v-5c0-2.43-1-3.7-2.66-3.7S250.33,260.81,250.33,263.24Z"/><path class="cls-2" d="M265.69,269.59V256.42a1.46,1.46,0,0,1,1.47-1.46h3.46a1.46,1.46,0,0,1,1.47,1.46v12.71c0,1.81.42,2.62,1.92,2.62a4,4,0,0,0,2.74-1.51V256.42a1.46,1.46,0,0,1,1.46-1.46h3.46a1.46,1.46,0,0,1,1.47,1.46v18.64a1.46,1.46,0,0,1-1.47,1.46H278.9a1.66,1.66,0,0,1-1.65-1.46l0-.43a6.66,6.66,0,0,1-4.93,2.28C267.16,276.91,265.69,274.09,265.69,269.59Z"/><path class="cls-2" d="M287.29,268.86v-9.28h-.38a1.47,1.47,0,0,1-1.47-1.47v-1.69a1.46,1.46,0,0,1,1.47-1.46h.73l.46-3.93a1.66,1.66,0,0,1,1.66-1.46h2.46a1.46,1.46,0,0,1,1.46,1.46V255h3.39a1.46,1.46,0,0,1,1.47,1.46v1.69a1.47,1.47,0,0,1-1.47,1.47h-3.39V269c0,2,.74,3,2.39,3,.5,0,.93,0,1.35-.08a1.11,1.11,0,0,1,1.27,1.16v2.15a1.66,1.66,0,0,1-1.46,1.62c-.85.08-1.74.12-2.51.12C289.41,276.91,287.29,274,287.29,268.86Z"/><path class="cls-2" d="M303.89,276.52a1.46,1.46,0,0,1-1.47-1.46V259.54h-.11c-.81,0-1.19-.54-1.19-1.35v-1.92a1.21,1.21,0,0,1,1.3-1.31h4.93a1.46,1.46,0,0,1,1.47,1.46v18.64a1.46,1.46,0,0,1-1.47,1.46Zm1.46-23c-2.12,0-3.54-.73-3.54-2.88s1.42-3,3.54-3,3.62.77,3.62,3S307.51,253.49,305.35,253.49Z"/><path class="cls-2" d="M314.21,276.52a1.46,1.46,0,0,1-1.47-1.46V256.42a1.46,1.46,0,0,1,1.47-1.46h2.69a1.7,1.7,0,0,1,1.7,1.46l.07.42a6.75,6.75,0,0,1,5-2.27c5.16,0,6.7,2.81,6.7,7.32v13.17a1.46,1.46,0,0,1-1.46,1.46h-3.47a1.46,1.46,0,0,1-1.46-1.46V262.35c0-1.81-.5-2.62-2-2.62a4.07,4.07,0,0,0-2.78,1.5v13.83a1.46,1.46,0,0,1-1.46,1.46Z"/><path class="cls-2" d="M334.34,277.29a1.43,1.43,0,0,1,1.43-1.46h3c.92,0,1.35.73,1.77,1.23a3.13,3.13,0,0,0,2.46,1,2.59,2.59,0,0,0,2.7-2.92v-2.51a6.87,6.87,0,0,1-4.78,2c-5.19,0-6.85-2.66-6.85-7.82v-4.35c0-5.16,1.66-7.82,6.85-7.82a7.24,7.24,0,0,1,5.13,2.27l.11-.46A1.82,1.82,0,0,1,348,255h2.58a1.46,1.46,0,0,1,1.47,1.46v18.71c0,5-3.39,7.55-9,7.55C336.92,282.68,334.34,279.79,334.34,277.29Zm6.16-14.55v3.65c0,2.2.54,3,2.12,3a4.52,4.52,0,0,0,3-1.5v-6.67a4.52,4.52,0,0,0-3-1.5C341,259.73,340.5,260.54,340.5,262.74Z"/><path class="cls-3" d="M215.33,306.79c-16.64,0-32-1.47-43.55-4.29-12.05-2.94-19.65-7.26-22.6-12.84a17.13,17.13,0,0,1-1.77-5.1,2.93,2.93,0,1,1,5.77-1,11.31,11.31,0,0,0,1.19,3.36c2.07,3.92,8.74,7.43,18.8,9.89,36.2,8.84,102.58,3,122.44-10.78a38.92,38.92,0,0,0,4.86-3.95,2.93,2.93,0,0,1,4.07,4.22,44.1,44.1,0,0,1-5.59,4.54c-10.34,7.18-31.67,12.6-58.5,14.88C232,306.44,223.5,306.79,215.33,306.79Z"/><path class="cls-3" d="M192.44,242a2.94,2.94,0,0,1-2.06-.84C179,230,163,213.05,151.57,195.58,136.78,173,133.9,155.9,143,144.79l0,0h0l.07-.08.07-.09c11.26-13.17,34-10.76,67.59,7.16a361.41,361.41,0,0,1,41.91,26.78c1.52-12.33,6.56-42.66,20.09-51.76a15.61,15.61,0,0,1,14-1.93c6.41,2,12.35,9.5,17.65,22.22,4.52,10.83,8.4,25,11.24,41.07a2.93,2.93,0,1,1-5.77,1c-5.7-32.23-15.71-55.83-24.89-58.73a9.87,9.87,0,0,0-9,1.21c-12,8-17.11,40.69-18.07,52.59a2.94,2.94,0,0,1-4.73,2.07c-23.06-18-87-60-105.68-37.8-17.93,21.87,31.39,73.27,47,88.51a2.94,2.94,0,0,1-2.05,5Z"/><path class="cls-3" d="M329.12,248.26a2.89,2.89,0,0,1-1.38-.35,2.92,2.92,0,0,1-1.2-4,217.1,217.1,0,0,0,20.53-56c-4.75,6.32-11.6,12.39-21.09,14.38a2.93,2.93,0,0,1-1.2-5.74c13.09-2.74,20.44-15.34,23.65-22.6A3.62,3.62,0,0,1,355.3,176a226.16,226.16,0,0,1-23.59,70.71A2.93,2.93,0,0,1,329.12,248.26Z"/><path class="cls-3" d="M292.26,193.16a2.93,2.93,0,0,1-1.62-.49c-10.44-6.94-21.76-17.53-33.64-31.47l-.17-.23L198.71,77.8c7.79,26.53,22.4,83.06,14.57,110.68a2.93,2.93,0,0,1-5.64-1.59c3.65-12.87,2.28-35.53-4-65.52a551.43,551.43,0,0,0-14.92-55.95A3.55,3.55,0,0,1,195,62.29l66.52,95.21C273,171,283.92,181.17,293.88,187.79a2.93,2.93,0,0,1-1.62,5.37Z"/><path class="cls-3" d="M163.87,252.89a2.92,2.92,0,0,1-1.22-.27L72,211a3.68,3.68,0,0,1,2-7c20.44,2.84,87.47,6.38,117.35-2.48a2.93,2.93,0,0,1,1.67,5.62c-17.38,5.15-45,6-65.09,5.85-16.16-.14-30.86-.95-41.49-1.81l78.62,36.08a2.93,2.93,0,0,1-1.22,5.59Z"/><path class="cls-3" d="M211.26,348a3.74,3.74,0,0,1-2.14-6.78c5.91-4.13,16-12.87,17.22-25,1-9.54-3.63-19.73-13.65-30.27a2.93,2.93,0,1,1,4.25-4c11.24,11.84,16.37,23.58,15.23,34.9-.87,8.69-5.37,15.78-10.28,21.08a212.16,212.16,0,0,0,78.3-55.67,2.93,2.93,0,1,1,4.39,3.88c-24.59,27.86-55.55,48.62-92,61.7A3.89,3.89,0,0,1,211.26,348Z"/></svg>